<svg xmlns="http://www.w3.org/2000/svg" version="1.1" xmlns:xlink="http://www.w3.org/1999/xlink" xmlns:svgjs="http://svgjs.dev/svgjs" width="1000" height="1000" viewBox="0 0 1000 1000"><rect width="1000" height="1000" fill="#ffffff"></rect><g transform="matrix(0.7,0,0,0.7,149.57575757575756,418.06359284547824)"><svg viewBox="0 0 396 93" data-background-color="#ffffff" preserveAspectRatio="xMidYMid meet" height="234" width="1000" xmlns="http://www.w3.org/2000/svg" xmlns:xlink="http://www.w3.org/1999/xlink"><g id="tight-bounds" transform="matrix(1,0,0,1,0.2400000000000091,0.020670728757806955)"><svg viewBox="0 0 395.52 92.9586585424844" height="92.9586585424844" width="395.52"><g><svg viewBox="0 0 623.2260338108621 146.47617332071897" height="92.9586585424844" width="395.52"><g><rect width="13.143654202461" height="146.47617332071897" x="180.15490787420998" y="0" fill="#8dbdff" opacity="1" stroke-width="0" stroke="transparent" fill-opacity="1" class="rect-o-0" data-fill-palette-color="primary" rx="1%" id="o-0" data-palette-color="#8dbdff"></rect></g><g transform="matrix(1,0,0,1,227.70603381086207,0.36436859035003977)"><svg viewBox="0 0 395.52 145.7474361400189" height="145.7474361400189" width="395.52"><g id="textblocktransform"><svg viewBox="0 0 395.52 145.7474361400189" height="145.7474361400189" width="395.52" id="textblock"><g><svg viewBox="0 0 395.52 145.7474361400189" height="145.7474361400189" width="395.52"><g transform="matrix(1,0,0,1,0,0)"><svg width="395.52" viewBox="-1.5 -37.75 105.69000244140625 38.95000076293945" height="145.7474361400189" data-palette-color="#8dbdff"><path d="M6.75-0.85L-1.5-0.3Q0.7-6.95 2.7-13.35L2.7-13.35Q3.55-16.05 4.45-19 5.35-21.95 6.25-24.85 7.15-27.75 7.93-30.45 8.7-33.15 9.3-35.45L9.3-35.45Q12.05-35.45 14.5-35.75 16.95-36.05 19.8-36.3L19.8-36.3Q19.65-35.2 19.48-33.83 19.3-32.45 19.07-30.95 18.85-29.45 18.6-27.85 18.35-26.25 18-23.75 17.65-21.25 17.05-17.5L17.05-17.5 17.7-17.5Q19.15-21.3 20.1-23.83 21.05-26.35 21.65-27.95 22.25-29.55 22.88-31.08 23.5-32.6 24.08-33.98 24.65-35.35 25.15-36.4L25.15-36.4Q26.4-36.5 27.5-36.65 28.6-36.8 29.7-36.98 30.8-37.15 31.93-37.33 33.05-37.5 34.4-37.75L34.4-37.75Q33.9-34.85 33.45-31.8 33-28.75 32.65-25.73 32.3-22.7 31.98-19.75 31.65-16.8 31.4-14.15L31.4-14.15Q30.8-7.95 30.35-2.05L30.35-2.05 21.65-0.5Q21.65-0.75 21.73-1.85 21.8-2.95 21.93-4.55 22.05-6.15 22.28-8.1 22.5-10.05 22.73-12 22.95-13.95 23.2-15.78 23.45-17.6 23.7-18.9L23.7-18.9 23.25-18.9Q22.55-16.8 21.7-14.48 20.85-12.15 19.98-9.75 19.1-7.35 18.25-5.05 17.4-2.75 16.75-0.65L16.75-0.65Q15-0.6 13.75-0.53 12.5-0.45 10.85-0.35L10.85-0.35 12.45-18.9 11.7-18.9Q11.6-18.25 11.2-16.73 10.8-15.2 10.28-13.23 9.75-11.25 9.15-9.13 8.55-7 8.03-5.18 7.5-3.35 7.15-2.18 6.8-1 6.75-0.85L6.75-0.85ZM57.85-19.05Q57.5-13.95 55.85-10.18 54.2-6.4 51.87-3.85 49.55-1.3 46.87-0.05 44.2 1.2 41.8 1.2L41.8 1.2Q39.95 1.2 38.27 0.4 36.6-0.4 35.37-2.02 34.15-3.65 33.45-6.1 32.75-8.55 32.75-11.85L32.75-11.85Q32.75-18.3 34.6-23.1 36.45-27.9 39.27-31.1 42.1-34.3 45.32-35.85 48.55-37.4 51.35-37.4L51.35-37.4Q53.35-37.4 54.82-36.7 56.3-36 57.25-34.83 58.2-33.65 58.62-32.08 59.05-30.5 59.05-28.75L59.05-28.75 52.2-27.45Q51.75-29.45 51-30.3 50.25-31.15 49.3-31.15L49.3-31.15Q48.05-31.15 46.55-29.38 45.05-27.6 43.75-24.8 42.45-22 41.55-18.65 40.65-15.3 40.55-12.05L40.55-12.05Q40.55-8.95 41.47-7.63 42.4-6.3 43.85-6.3L43.85-6.3Q44.85-6.3 45.92-6.8 47-7.3 47.85-8.22 48.7-9.15 49.27-10.38 49.85-11.6 49.9-13.05L49.9-13.05 44.55-12.25 45.5-17.2Q47.85-17.5 50.1-17.8L50.1-17.8Q52-18.05 54.12-18.4 56.25-18.75 57.85-19.05L57.85-19.05ZM76.95-10.75Q75.75-8 74.27-5.98 72.8-3.95 71.17-2.58 69.55-1.2 67.9-0.55 66.25 0.1 64.7 0.1L64.7 0.1Q63.15 0.1 61.87-0.6 60.6-1.3 59.65-2.7 58.7-4.1 58.12-6.15 57.55-8.2 57.55-10.95L57.55-10.95Q57.55-15.65 58.85-20.23 60.15-24.8 62.5-28.45 64.84-32.1 68.07-34.33 71.3-36.55 75.2-36.55L75.2-36.55Q76.4-36.55 77.5-36.05 78.59-35.55 79.4-34.65 80.2-33.75 80.67-32.45 81.15-31.15 81.15-29.55L81.15-29.55Q81.15-29.25 81.15-28.93 81.15-28.6 81.09-28.25L81.09-28.25 74.55-26.5Q73.95-27.75 73.15-27.75L73.15-27.75Q72.34-27.75 71.47-26.83 70.59-25.9 69.75-24.43 68.9-22.95 68.09-21.13 67.3-19.3 66.7-17.45 66.09-15.6 65.72-13.93 65.34-12.25 65.34-11.2L65.34-11.2Q65.34-9.6 65.77-8.95 66.2-8.3 66.9-8.3L66.9-8.3Q67.45-8.3 68.15-8.72 68.84-9.15 69.45-9.83 70.05-10.5 70.55-11.35 71.05-12.2 71.25-13.05L71.25-13.05 76.95-10.75ZM83.89-1.45L76.59 0.25Q77.99-6.8 79.29-13.5L79.29-13.5Q79.79-16.3 80.37-19.38 80.94-22.45 81.44-25.43 81.94-28.4 82.37-31.18 82.79-33.95 83.04-36.25L83.04-36.25Q84.59-36.35 86.04-36.45L86.04-36.45Q87.34-36.55 88.69-36.63 90.04-36.7 91.09-36.8L91.09-36.8Q91.74-32.95 92.24-29.45L92.24-29.45Q92.49-27.95 92.77-26.33 93.04-24.7 93.29-23.2 93.54-21.7 93.79-20.33 94.04-18.95 94.29-17.9L94.29-17.9Q94.49-18.95 94.74-20.33 94.99-21.7 95.29-23.23 95.59-24.75 95.92-26.35 96.24-27.95 96.54-29.45L96.54-29.45Q97.29-32.95 98.09-36.75L98.09-36.75 104.19-37.5Q102.49-30 101.19-23.3L101.19-23.3Q100.59-20.4 100.02-17.45 99.44-14.5 98.94-11.75 98.44-9 98.09-6.68 97.74-4.35 97.54-2.75L97.54-2.75Q97.39-2.75 96.37-2.53 95.34-2.3 94.02-2 92.69-1.7 91.37-1.38 90.04-1.05 89.39-0.85L89.39-0.85Q89.04-4.9 88.64-8.55L88.64-8.55Q88.49-10.1 88.29-11.75 88.09-13.4 87.92-14.9 87.74-16.4 87.57-17.73 87.39-19.05 87.24-19.95L87.24-19.95Q87.09-19.05 86.84-17.75 86.59-16.45 86.34-14.98 86.09-13.5 85.84-11.93 85.59-10.35 85.29-8.85L85.29-8.85Q84.64-5.3 83.89-1.45L83.89-1.45Z" opacity="1" transform="matrix(1,0,0,1,0,0)" fill="#8dbdff" class="undefined-text-0" data-fill-palette-color="primary" id="text-0"></path></svg></g></svg></g></svg></g></svg></g><g transform="matrix(1,0,0,1,0,0.36436859035003977)"><svg viewBox="0 0 145.7474361400189 145.7474361400189" height="145.7474361400189" width="145.7474361400189"><g><svg xmlns="http://www.w3.org/2000/svg" data-name="Layer 1" viewBox="2 2 60 60" x="0" y="0" height="145.7474361400189" width="145.7474361400189" class="icon-icon-0" data-fill-palette-color="accent" id="icon-0"><path d="M20.065 52.613L7 50V62H57V51L44.018 53.077A67.643 67.643 0 0 1 20.065 52.613Zm2.962 5.419a13.479 13.479 0 0 1-10.053 0l-0.346-0.138 0.744-1.857 0.345 0.138a11.485 11.485 0 0 0 8.567 0l0.344-0.138 0.744 1.857Zm19.345-1.995l0.345 0.138a11.485 11.485 0 0 0 8.567 0l0.344-0.138 0.744 1.857-0.345 0.138a13.479 13.479 0 0 1-10.053 0l-0.346-0.138Z" fill="#8dbdff" data-fill-palette-color="accent"></path><path d="M50.024 37.617l-0.518 1.619a7.028 7.028 0 0 0 1.328 1.328l1.619-0.518a5.648 5.648 0 0 0 0.902 0.377l0.777 1.507h1.876l0.777-1.507a5.649 5.649 0 0 0 0.902-0.377l1.619 0.518a7.026 7.026 0 0 0 1.328-1.328l-0.517-1.619a5.649 5.649 0 0 0 0.376-0.902L62 35.938V34.062l-1.507-0.777a5.65 5.65 0 0 0-0.376-0.902l0.517-1.619A7.031 7.031 0 0 0 59.306 29.436l-1.619 0.518a5.647 5.647 0 0 0-0.902-0.377l-0.777-1.507H54.132l-0.777 1.507a5.646 5.646 0 0 0-0.901 0.376l-1.62-0.517a7.029 7.029 0 0 0-1.328 1.328l0.518 1.619a5.643 5.643 0 0 0-0.377 0.902l-1.507 0.777v1.876l1.507 0.777A5.64 5.64 0 0 0 50.024 37.617ZM55.07 33a2 2 0 1 1-2 2A2 2 0 0 1 55.07 33Z" fill="#8dbdff" data-fill-palette-color="accent"></path><path d="M26.954 11.547l-0.518 1.619a7.028 7.028 0 0 0 1.328 1.328l1.619-0.518a5.647 5.647 0 0 0 0.902 0.377l0.777 1.507h1.876l0.777-1.507a5.649 5.649 0 0 0 0.902-0.377l1.619 0.518a7.026 7.026 0 0 0 1.328-1.328l-0.518-1.619a5.649 5.649 0 0 0 0.377-0.902l1.507-0.777V7.992L37.423 7.215a5.65 5.65 0 0 0-0.377-0.902l0.518-1.619a7.03 7.03 0 0 0-1.328-1.328l-1.619 0.517a5.647 5.647 0 0 0-0.902-0.376L32.938 2h-1.876l-0.777 1.507a5.646 5.646 0 0 0-0.902 0.376l-1.619-0.517a7.029 7.029 0 0 0-1.328 1.328l0.518 1.619a5.644 5.644 0 0 0-0.377 0.902l-1.507 0.777V9.868l1.507 0.777A5.64 5.64 0 0 0 26.954 11.547ZM32 6.93a2 2 0 1 1-2 2A2 2 0 0 1 32 6.93Z" fill="#8dbdff" data-fill-palette-color="accent"></path><path d="M3.883 37.617l-0.517 1.619A7.028 7.028 0 0 0 4.694 40.564l1.619-0.518a5.648 5.648 0 0 0 0.902 0.377l0.777 1.507H9.868l0.777-1.507a5.649 5.649 0 0 0 0.902-0.377l1.619 0.518a7.026 7.026 0 0 0 1.328-1.328l-0.518-1.619a5.648 5.648 0 0 0 0.377-0.902l1.507-0.777V34.062L14.353 33.285a5.649 5.649 0 0 0-0.377-0.902l0.518-1.619a7.03 7.03 0 0 0-1.328-1.328l-1.619 0.518a5.647 5.647 0 0 0-0.902-0.377L9.868 28.07H7.992L7.215 29.577a5.646 5.646 0 0 0-0.902 0.376l-1.619-0.517a7.029 7.029 0 0 0-1.328 1.328l0.517 1.619a5.644 5.644 0 0 0-0.376 0.902L2 34.062v1.876l1.507 0.777A5.64 5.64 0 0 0 3.883 37.617ZM8.93 33a2 2 0 1 1-2 2A2 2 0 0 1 8.93 33Z" fill="#8dbdff" data-fill-palette-color="accent"></path><rect x="31" y="45" width="2" height="6" fill="#8dbdff" data-fill-palette-color="accent"></rect><rect x="38" y="45" width="2" height="5" fill="#8dbdff" data-fill-palette-color="accent"></rect><rect x="24" y="45" width="2" height="5" fill="#8dbdff" data-fill-palette-color="accent"></rect><rect x="60" y="2" width="2" height="2" fill="#8dbdff" data-fill-palette-color="accent"></rect><rect x="55" y="13" width="2" height="2" fill="#8dbdff" data-fill-palette-color="accent"></rect><rect x="42" y="18" width="2" height="2" fill="#8dbdff" data-fill-palette-color="accent"></rect><rect x="20" y="22" width="2" height="2" fill="#8dbdff" data-fill-palette-color="accent"></rect><rect x="15" y="5" width="2" height="2" fill="#8dbdff" data-fill-palette-color="accent"></rect><rect x="2" y="2" width="2" height="2" fill="#8dbdff" data-fill-palette-color="accent"></rect><path d="M39 31.049A4.049 4.049 0 0 0 34.951 27h-0.331a4 4 0 1 0-5.241 0h-0.33A4.049 4.049 0 0 0 25 31.049V41H39Z" fill="#8dbdff" data-fill-palette-color="accent"></path></svg></g></svg></g></svg></g><defs></defs></svg><rect width="395.52" height="92.9586585424844" fill="none" stroke="none" visibility="hidden"></rect></g></svg></g></svg>